G04*
G04 #@! TF.GenerationSoftware,Altium Limited,Altium Designer,24.10.1 (45)*
G04*
G04 Layer_Color=255*
%FSLAX44Y44*%
%MOMM*%
G71*
G04*
G04 #@! TF.SameCoordinates,E69FEA44-DA16-44E3-94DC-E8409096E302*
G04*
G04*
G04 #@! TF.FilePolarity,Positive*
G04*
G01*
G75*
%ADD103R,1.2500X1.2500*%
%ADD104C,1.2500*%
%ADD107C,1.2000*%
%ADD108R,1.2000X1.2000*%
%ADD110R,1.2000X1.2000*%
%ADD119C,1.8000*%
%ADD120O,2.0000X2.0000*%
%ADD121R,1.6000X1.6000*%
%ADD122C,1.6000*%
%ADD123R,2.3000X2.3000*%
%ADD124C,2.3000*%
%ADD125O,2.4000X4.8000*%
%ADD126O,3.4000X1.7000*%
%ADD127C,1.1000*%
%ADD128R,1.0500X1.0500*%
%ADD129C,1.0500*%
D103*
X499110Y705790D02*
D03*
D104*
X524510D02*
D03*
X549910D02*
D03*
X575310D02*
D03*
X600710D02*
D03*
X626110D02*
D03*
X651510D02*
D03*
Y785190D02*
D03*
X626110D02*
D03*
X600710D02*
D03*
X575310D02*
D03*
X549910D02*
D03*
X524510D02*
D03*
X499110D02*
D03*
D107*
X481350Y1215100D02*
D03*
X353190D02*
D03*
X417270D02*
D03*
X609510D02*
D03*
X764700Y1219200D02*
D03*
X859790Y1235310D02*
D03*
X828040Y1185310D02*
D03*
X545430Y1215100D02*
D03*
D108*
X461350D02*
D03*
X333190D02*
D03*
X397270D02*
D03*
X589510D02*
D03*
X784700Y1219200D02*
D03*
X525430Y1215100D02*
D03*
D110*
X859790Y1185310D02*
D03*
X828040Y1235310D02*
D03*
D119*
X1329690Y295910D02*
D03*
X1367790D02*
D03*
X353010Y297870D02*
D03*
X314910D02*
D03*
X469850D02*
D03*
X431750D02*
D03*
X1479550Y295910D02*
D03*
X1441450D02*
D03*
D120*
X450850Y449580D02*
D03*
X476250D02*
D03*
X501650D02*
D03*
X527050D02*
D03*
X577850D02*
D03*
X603250D02*
D03*
X628650D02*
D03*
X552450D02*
D03*
X425450D02*
D03*
X323850D02*
D03*
X349250D02*
D03*
X374650D02*
D03*
X298196D02*
D03*
X400050D02*
D03*
X653941Y601726D02*
D03*
X679342D02*
D03*
X603142D02*
D03*
X704742D02*
D03*
X730142D02*
D03*
X755542D02*
D03*
X780941D02*
D03*
X628541D02*
D03*
X577742D02*
D03*
X476142D02*
D03*
X552341D02*
D03*
X526941D02*
D03*
X501541D02*
D03*
X450742D02*
D03*
X425341D02*
D03*
X323741D02*
D03*
X349142D02*
D03*
X374542D02*
D03*
X298342D02*
D03*
X399941D02*
D03*
X654050Y449580D02*
D03*
X755650D02*
D03*
X679450D02*
D03*
X781050D02*
D03*
X730250D02*
D03*
X704850D02*
D03*
D121*
X1593846Y271780D02*
D03*
X1686136Y271769D02*
D03*
D122*
X1570946Y271780D02*
D03*
X1548046D02*
D03*
X1663236Y271769D02*
D03*
X1640336D02*
D03*
D123*
X1743710Y945810D02*
D03*
Y1163100D02*
D03*
Y510310D02*
D03*
Y727600D02*
D03*
D124*
Y891310D02*
D03*
Y836810D02*
D03*
Y1108600D02*
D03*
Y1054100D02*
D03*
Y455810D02*
D03*
Y401310D02*
D03*
Y673100D02*
D03*
Y618600D02*
D03*
D125*
X392657Y1117820D02*
D03*
D126*
X437657D02*
D03*
D127*
X698730Y1224280D02*
D03*
X648730D02*
D03*
D128*
X1681480Y746760D02*
D03*
X1659890Y318770D02*
D03*
D129*
X1668780Y746760D02*
D03*
X1656080D02*
D03*
X1647190Y318770D02*
D03*
X1634490D02*
D03*
M02*
