G04*
G04 #@! TF.GenerationSoftware,Altium Limited,Altium Designer,24.10.1 (45)*
G04*
G04 Layer_Color=16711935*
%FSLAX44Y44*%
%MOMM*%
G71*
G04*
G04 #@! TF.SameCoordinates,E69FEA44-DA16-44E3-94DC-E8409096E302*
G04*
G04*
G04 #@! TF.FilePolarity,Positive*
G04*
G01*
G75*
%ADD10C,0.2000*%
%ADD13C,0.1270*%
%ADD14C,0.1500*%
%ADD133C,0.1000*%
%ADD134C,0.1016*%
G36*
X1316101Y498427D02*
Y503428D01*
X1325601D01*
Y498427D01*
X1316101D01*
D02*
G37*
G36*
Y510111D02*
Y515112D01*
X1325601D01*
Y510111D01*
X1316101D01*
D02*
G37*
G36*
X1693291Y342217D02*
Y347218D01*
X1702791D01*
Y342217D01*
X1693291D01*
D02*
G37*
G36*
Y353901D02*
Y358902D01*
X1702791D01*
Y353901D01*
X1693291D01*
D02*
G37*
D10*
X393557Y1148820D02*
G03*
X393557Y1148820I-1000J0D01*
G01*
X301810Y944230D02*
G03*
X301810Y944230I-1000J0D01*
G01*
X573910Y1155980D02*
G03*
X573910Y1155980I-1000J0D01*
G01*
X1698370Y588520D02*
Y620520D01*
X1682370Y588520D02*
X1698370D01*
X1682370D02*
Y620520D01*
X1698370D01*
X1675050Y601870D02*
Y619870D01*
X1665050Y601870D02*
X1675050D01*
X1665050D02*
Y619870D01*
X1675050D01*
X1658540Y601870D02*
Y619870D01*
X1648540Y601870D02*
X1658540D01*
X1648540D02*
Y619870D01*
X1658540D01*
X529050Y263065D02*
Y339065D01*
X575050D01*
Y263065D02*
Y339065D01*
X529050Y263065D02*
X575050D01*
X581990Y261714D02*
Y337715D01*
X627990D01*
Y261714D02*
Y337715D01*
X581990Y261714D02*
X627990D01*
X688200Y262990D02*
Y338990D01*
X734200D01*
Y262990D02*
Y338990D01*
X688200Y262990D02*
X734200D01*
X634930Y261721D02*
Y337721D01*
X680930D01*
Y261721D02*
Y337721D01*
X634930Y261721D02*
X680930D01*
X1286650Y413340D02*
Y489340D01*
X1240650Y413340D02*
X1286650D01*
X1240650D02*
Y489340D01*
X1286650D01*
X1240650Y500480D02*
Y576480D01*
X1286650D01*
Y500480D02*
Y576480D01*
X1240650Y500480D02*
X1286650D01*
X1288396Y285370D02*
Y301370D01*
X1296396D01*
Y285370D02*
Y301370D01*
X1288396Y285370D02*
X1296396D01*
X1576116Y473070D02*
X1652116D01*
X1576116D02*
Y519070D01*
X1652116D01*
Y473070D02*
Y519070D01*
X896980Y620120D02*
Y792120D01*
X1068980D01*
Y620120D02*
Y792120D01*
X896980Y620120D02*
X1068980D01*
X1120500D02*
Y792120D01*
X1292500D01*
Y620120D02*
Y792120D01*
X1120500Y620120D02*
X1292500D01*
X1449536Y652770D02*
Y757770D01*
X1554536D01*
Y652770D02*
Y757770D01*
X1449536Y652770D02*
X1554536D01*
X1333966D02*
Y757770D01*
X1438966D01*
Y652770D02*
Y757770D01*
X1333966Y652770D02*
X1438966D01*
X1554536Y504810D02*
Y609810D01*
X1449536Y504810D02*
X1554536D01*
X1449536D02*
Y609810D01*
X1554536D01*
X1438966Y505130D02*
Y610130D01*
X1333966Y505130D02*
X1438966D01*
X1333966D02*
Y610130D01*
X1438966D01*
X1441506Y347650D02*
Y452650D01*
X1336506Y347650D02*
X1441506D01*
X1336506D02*
Y452650D01*
X1441506D01*
X1557076Y347650D02*
Y452650D01*
X1452076Y347650D02*
X1557076D01*
X1452076D02*
Y452650D01*
X1557076D01*
X476860Y712490D02*
Y778490D01*
X673760D01*
Y712490D02*
Y778490D01*
X476860Y712490D02*
X673760D01*
X279880Y751050D02*
X339880D01*
X279880D02*
Y811050D01*
X339880D01*
Y751050D02*
Y811050D01*
X279880Y674850D02*
X339880D01*
X279880D02*
Y734850D01*
X339880D01*
Y674850D02*
Y734850D01*
X1595610Y1247570D02*
Y1255570D01*
Y1247570D02*
X1611610D01*
Y1255570D01*
X1595610D02*
X1611610D01*
X1595884Y1226030D02*
Y1234030D01*
Y1226030D02*
X1611884D01*
Y1234030D01*
X1595884D02*
X1611884D01*
X1595594Y1204490D02*
Y1212490D01*
Y1204490D02*
X1611594D01*
Y1212490D01*
X1595594D02*
X1611594D01*
X1595640Y1139870D02*
Y1147870D01*
Y1139870D02*
X1611640D01*
Y1147870D01*
X1595640D02*
X1611640D01*
X1595640Y1182950D02*
Y1190950D01*
Y1182950D02*
X1611640D01*
Y1190950D01*
X1595640D02*
X1611640D01*
X1595640Y1161410D02*
Y1169410D01*
Y1161410D02*
X1611640D01*
Y1169410D01*
X1595640D02*
X1611640D01*
X1637550Y1086530D02*
Y1094530D01*
Y1086530D02*
X1653550D01*
Y1094530D01*
X1637550D02*
X1653550D01*
X1637550Y1064890D02*
Y1072890D01*
Y1064890D02*
X1653550D01*
Y1072890D01*
X1637550D02*
X1653550D01*
X1637550Y1108070D02*
Y1116070D01*
Y1108070D02*
X1653550D01*
Y1116070D01*
X1637550D02*
X1653550D01*
X1637550Y1043350D02*
Y1051350D01*
Y1043350D02*
X1653550D01*
Y1051350D01*
X1637550D02*
X1653550D01*
X1637803Y997730D02*
Y1005730D01*
Y997730D02*
X1653803D01*
Y1005730D01*
X1637803D02*
X1653803D01*
X1637803Y1021810D02*
Y1029810D01*
Y1021810D02*
X1653803D01*
Y1029810D01*
X1637803D02*
X1653803D01*
X739855Y853600D02*
Y863100D01*
Y853600D02*
X756854D01*
Y863100D01*
X739855D02*
X756854D01*
X891550Y970670D02*
X901050D01*
Y987670D01*
X891550D02*
X901050D01*
X891550Y970670D02*
Y987670D01*
X893140Y954900D02*
X902640D01*
X893140Y937400D02*
Y954900D01*
Y937400D02*
X902640D01*
Y954900D01*
X869010Y970670D02*
X878510D01*
Y987670D01*
X869010D02*
X878510D01*
X869010Y970670D02*
Y987670D01*
X1195847Y884060D02*
X1205347D01*
Y901560D01*
X1195847D02*
X1205347D01*
X1195847Y884060D02*
Y901560D01*
X1221150Y1102428D02*
X1230650D01*
X1221150Y1084928D02*
Y1102428D01*
Y1084928D02*
X1230650D01*
Y1102428D01*
X1245950Y1239706D02*
X1255950D01*
X1245950Y1221706D02*
Y1239706D01*
Y1221706D02*
X1255950D01*
Y1239706D01*
X1174557Y900810D02*
X1182557D01*
X1174557Y884810D02*
Y900810D01*
Y884810D02*
X1182557D01*
Y900810D01*
X1352900Y1190846D02*
X1362400D01*
X1352900Y1173346D02*
Y1190846D01*
Y1173346D02*
X1362400D01*
Y1190846D01*
X1315530Y1137266D02*
X1323530D01*
Y1153266D01*
X1315530D02*
X1323530D01*
X1315530Y1137266D02*
Y1153266D01*
X1328273Y960260D02*
X1337773D01*
Y977760D01*
X1328273D02*
X1337773D01*
X1328273Y960260D02*
Y977760D01*
X1351093Y977010D02*
X1359093D01*
X1351093Y961010D02*
Y977010D01*
Y961010D02*
X1359093D01*
Y977010D01*
X1287080Y1101544D02*
X1295080D01*
X1287080Y1085544D02*
Y1101544D01*
Y1085544D02*
X1295080D01*
Y1101544D01*
X1264260Y1084805D02*
X1273760D01*
Y1102305D01*
X1264260D02*
X1273760D01*
X1264260Y1084805D02*
Y1102305D01*
X1314780Y1100956D02*
X1324280D01*
Y1118456D01*
X1314780D02*
X1324280D01*
X1314780Y1100956D02*
Y1118456D01*
X878200Y879220D02*
X886200D01*
X878200Y863220D02*
Y879220D01*
Y863220D02*
X886200D01*
Y879220D01*
X1199830Y1085545D02*
X1207830D01*
Y1101545D01*
X1199830D02*
X1207830D01*
X1199830Y1085545D02*
Y1101545D01*
X1246200Y1159096D02*
X1255700D01*
X1246200Y1141596D02*
Y1159096D01*
Y1141596D02*
X1255700D01*
Y1159096D01*
X1242690Y1084105D02*
X1252190D01*
Y1101605D01*
X1242690D02*
X1252190D01*
X1242690Y1084105D02*
Y1101605D01*
X899490Y862470D02*
X908990D01*
Y879970D01*
X899490D02*
X908990D01*
X899490Y862470D02*
Y879970D01*
X916150Y1104083D02*
X925650D01*
Y1121083D01*
X916150D02*
X925650D01*
X916150Y1104083D02*
Y1121083D01*
X916000Y1069730D02*
X925500D01*
Y1086730D01*
X916000D02*
X925500D01*
X916000Y1069730D02*
Y1086730D01*
X1308921Y852037D02*
X1316921D01*
X1308921Y836037D02*
Y852037D01*
Y836037D02*
X1316921D01*
Y852037D01*
X1217240Y901310D02*
X1226240D01*
X1217240Y884310D02*
Y901310D01*
Y884310D02*
X1226240D01*
Y901310D01*
X1315180Y1191409D02*
X1324180D01*
X1315180Y1174409D02*
Y1191409D01*
Y1174409D02*
X1324180D01*
Y1191409D01*
X1333580Y1173096D02*
X1343580D01*
Y1191096D01*
X1333580D02*
X1343580D01*
X1333580Y1173096D02*
Y1191096D01*
X1238307Y922487D02*
X1247307D01*
Y939488D01*
X1238307D02*
X1247307D01*
X1238307Y922487D02*
Y939488D01*
X1268757Y1237143D02*
X1276757D01*
X1268757Y1221143D02*
Y1237143D01*
Y1221143D02*
X1276757D01*
Y1237143D01*
X1291418Y1237086D02*
X1299418D01*
X1291418Y1221086D02*
Y1237086D01*
Y1221086D02*
X1299418D01*
Y1237086D01*
X1246450Y1194406D02*
X1255450D01*
X1246450Y1177406D02*
Y1194406D01*
Y1177406D02*
X1255450D01*
Y1194406D01*
X1307433Y894952D02*
X1316433D01*
X1307433Y877952D02*
Y894952D01*
Y877952D02*
X1316433D01*
Y894952D01*
X1235790Y900540D02*
X1245790D01*
X1235790Y882540D02*
Y900540D01*
Y882540D02*
X1245790D01*
Y900540D01*
X1305360Y936021D02*
X1315360D01*
X1305360Y918021D02*
Y936021D01*
Y918021D02*
X1315360D01*
Y936021D01*
X762840Y1056210D02*
Y1161210D01*
Y1056210D02*
X867840D01*
Y1161210D01*
X762840D02*
X867840D01*
X692686Y1175209D02*
X705186D01*
Y1195209D01*
X692686D02*
X705186D01*
X692686Y1175209D02*
Y1195209D01*
X380792Y1046280D02*
Y1055780D01*
X363792D02*
X380792D01*
X363792Y1046280D02*
Y1055780D01*
Y1046280D02*
X380792D01*
X526133Y1011580D02*
Y1021080D01*
Y1011580D02*
X543133D01*
Y1021080D01*
X526133D02*
X543133D01*
X635780Y1130190D02*
Y1148190D01*
Y1130190D02*
X669780D01*
Y1148190D01*
X635780D02*
X669780D01*
X709511Y1146169D02*
Y1155669D01*
X692011D02*
X709511D01*
X692011Y1146169D02*
Y1155669D01*
Y1146169D02*
X709511D01*
X526172Y989040D02*
Y998540D01*
Y989040D02*
X543172D01*
Y998540D01*
X526172D02*
X543172D01*
X526133Y966500D02*
Y976000D01*
Y966500D02*
X543133D01*
Y976000D01*
X526133D02*
X543133D01*
X526133Y943559D02*
Y953058D01*
Y943559D02*
X543133D01*
Y953058D01*
X526133D02*
X543133D01*
X419980Y871730D02*
Y881230D01*
X402980D02*
X419980D01*
X402980Y871730D02*
Y881230D01*
Y871730D02*
X419980D01*
X526172Y1034120D02*
Y1043620D01*
Y1034120D02*
X543172D01*
Y1043620D01*
X526172D02*
X543172D01*
X380519Y1023740D02*
Y1033240D01*
X363519D02*
X380519D01*
X363519Y1023740D02*
Y1033240D01*
Y1023740D02*
X380519D01*
Y1001200D02*
Y1010700D01*
X363519D02*
X380519D01*
X363519Y1001200D02*
Y1010700D01*
Y1001200D02*
X380519D01*
X363269Y977824D02*
Y987324D01*
Y977824D02*
X380769D01*
Y987324D01*
X363269D02*
X380769D01*
X363269Y955130D02*
Y964630D01*
Y955130D02*
X380769D01*
Y964630D01*
X363269D02*
X380769D01*
X307770Y913500D02*
Y928000D01*
Y913500D02*
X329770D01*
Y928000D01*
X307770D02*
X329770D01*
X331070Y982736D02*
Y995236D01*
X311070D02*
X331070D01*
X311070Y982736D02*
Y995236D01*
Y982736D02*
X331070D01*
X311070Y1030849D02*
Y1043349D01*
Y1030849D02*
X331070D01*
Y1043349D01*
X311070D02*
X331070D01*
X306460Y1008380D02*
Y1017380D01*
Y1008380D02*
X323460D01*
Y1017380D01*
X306460D02*
X323460D01*
X1562776Y535815D02*
X1608776D01*
Y611815D01*
X1562776D02*
X1608776D01*
X1562776Y535815D02*
Y611815D01*
X1614516Y637878D02*
X1642516D01*
X1614516Y601878D02*
Y637878D01*
Y601878D02*
X1642516D01*
Y637878D01*
X896830Y468748D02*
X942830D01*
Y544748D01*
X896830D02*
X942830D01*
X896830Y468748D02*
Y544748D01*
X1201280Y270610D02*
X1247280D01*
Y346610D01*
X1201280D02*
X1247280D01*
X1201280Y270610D02*
Y346610D01*
X847290Y1173810D02*
X872290D01*
Y1246810D01*
X847290D02*
X872290D01*
X847290Y1173810D02*
Y1246810D01*
X815540D02*
X840540D01*
X815540Y1173810D02*
Y1246810D01*
Y1173810D02*
X840540D01*
Y1246810D01*
X1239330Y965467D02*
X1247330D01*
Y981467D01*
X1239330D02*
X1247330D01*
X1239330Y965467D02*
Y981467D01*
X1263460Y964820D02*
X1271460D01*
Y980820D01*
X1263460D02*
X1271460D01*
X1263460Y964820D02*
Y980820D01*
X1614516Y573397D02*
X1642516D01*
X1614516Y537397D02*
Y573397D01*
Y537397D02*
X1642516D01*
Y573397D01*
X973950Y468730D02*
X1019950D01*
Y544730D01*
X973950D02*
X1019950D01*
X973950Y468730D02*
Y544730D01*
X1081420Y520020D02*
Y562020D01*
Y520020D02*
X1130920D01*
Y562020D01*
X1081420D02*
X1130920D01*
X1143650Y520020D02*
Y562020D01*
Y520020D02*
X1193150D01*
Y562020D01*
X1143650D02*
X1193150D01*
X1598740Y381380D02*
X1606740D01*
X1598740Y365380D02*
Y381380D01*
Y365380D02*
X1606740D01*
Y381380D01*
X1286121Y964820D02*
X1294121D01*
Y980820D01*
X1286121D02*
X1294121D01*
X1286121Y964820D02*
Y980820D01*
X1618560Y376800D02*
X1627560D01*
X1618560Y359800D02*
Y376800D01*
Y359800D02*
X1627560D01*
Y376800D01*
X1307410Y960510D02*
X1316410D01*
Y977510D01*
X1307410D02*
X1316410D01*
X1307410Y960510D02*
Y977510D01*
X1575669Y377048D02*
X1583669D01*
X1575669Y361048D02*
Y377048D01*
Y361048D02*
X1583669D01*
Y377048D01*
X711590Y1051890D02*
Y1061390D01*
Y1051890D02*
X728590D01*
Y1061390D01*
X711590D02*
X728590D01*
X373670Y801080D02*
Y810580D01*
Y801080D02*
X390670D01*
Y810580D01*
X373670D02*
X390670D01*
X1660780Y550990D02*
Y558990D01*
Y550990D02*
X1676780D01*
Y558990D01*
X1660780D02*
X1676780D01*
X373670Y722467D02*
Y731967D01*
Y722467D02*
X390670D01*
Y731967D01*
X373670D02*
X390670D01*
X1591890Y659520D02*
X1600890D01*
Y676520D01*
X1591890D02*
X1600890D01*
X1591890Y659520D02*
Y676520D01*
X1568070Y657100D02*
X1584070D01*
Y689100D01*
X1568070D02*
X1584070D01*
X1568070Y657100D02*
Y689100D01*
X938690Y1106729D02*
X944190D01*
Y1117729D01*
X938690D02*
X944190D01*
X938690Y1106729D02*
Y1117729D01*
X959880Y1106729D02*
X965380D01*
Y1117729D01*
X959880D02*
X965380D01*
X959880Y1106729D02*
Y1117729D01*
D13*
X257656Y1082220D02*
G03*
X263556Y1076320I5900J0D01*
G01*
X261556Y1159320D02*
G03*
X257656Y1155420I0J-3900D01*
G01*
X737712Y873400D02*
X755712D01*
X737712Y883600D02*
X755712D01*
Y873400D02*
Y883600D01*
X737712Y873400D02*
Y883600D01*
X352657Y1067820D02*
X452657D01*
X352657D02*
Y1076320D01*
Y1159320D01*
Y1167820D01*
X452657D01*
Y1137820D02*
Y1167820D01*
X448657Y1137820D02*
X452657D01*
X448657Y1097820D02*
Y1137820D01*
Y1097820D02*
X452657D01*
Y1067820D02*
Y1097820D01*
X263556Y1076320D02*
X352657D01*
X257656Y1082220D02*
Y1155420D01*
X261556Y1159320D02*
X352657D01*
X333810Y941230D02*
Y961230D01*
X308810Y941230D02*
Y961230D01*
Y941230D02*
X333810D01*
X308810Y961230D02*
X333810D01*
X637230Y1211780D02*
X710230D01*
X637230D02*
Y1236780D01*
X710230Y1211780D02*
Y1236780D01*
X637230D02*
X710230D01*
X517410Y1092480D02*
X582410D01*
X517410Y1127480D02*
X582410D01*
Y1092480D02*
Y1127480D01*
X517410Y1092480D02*
Y1127480D01*
X1632790Y410640D02*
Y432640D01*
X1618390Y410640D02*
Y432640D01*
X1632790D01*
X1618390Y410640D02*
X1632790D01*
X1667699Y341990D02*
Y363990D01*
X1653299Y341990D02*
Y363990D01*
X1667699D01*
X1653299Y341990D02*
X1667699D01*
X1691175Y777180D02*
Y799180D01*
X1676775Y777180D02*
Y799180D01*
X1691175D01*
X1676775Y777180D02*
X1691175D01*
X1679790Y410640D02*
Y432640D01*
X1665390Y410640D02*
Y432640D01*
X1679790D01*
X1665390Y410640D02*
X1679790D01*
D14*
X498850Y1215100D02*
G03*
X498850Y1215100I-27500J0D01*
G01*
X370690D02*
G03*
X370690Y1215100I-27500J0D01*
G01*
X434770D02*
G03*
X434770Y1215100I-27500J0D01*
G01*
X627010D02*
G03*
X627010Y1215100I-27500J0D01*
G01*
X802200Y1219200D02*
G03*
X802200Y1219200I-27500J0D01*
G01*
X562930Y1215100D02*
G03*
X562930Y1215100I-27500J0D01*
G01*
D133*
X1472280Y1155190D02*
G03*
X1472280Y1155190I-5000J0D01*
G01*
Y1015490D02*
G03*
X1472280Y1015490I-5000J0D01*
G01*
Y875790D02*
G03*
X1472280Y875790I-5000J0D01*
G01*
X1053180Y1184400D02*
G03*
X1053180Y1184400I-5000J0D01*
G01*
X1049370Y1044700D02*
G03*
X1049370Y1044700I-5000J0D01*
G01*
X1048100Y903730D02*
G03*
X1048100Y903730I-5000J0D01*
G01*
X775940Y989650D02*
G03*
X775940Y989650I-5000J0D01*
G01*
X371560Y853450D02*
G03*
X371560Y853450I-5000J0D01*
G01*
X446160Y1035680D02*
G03*
X446160Y1035680I-5000J0D01*
G01*
X1649441Y760111D02*
G03*
X1688117Y760115I19339J-13352D01*
G01*
X1627851Y332122D02*
G03*
X1666527Y332125I19339J-13352D01*
G01*
X753940Y293746D02*
Y310746D01*
X744940Y293746D02*
Y310746D01*
X753940D01*
X744940Y293746D02*
X753940D01*
X1091000Y276590D02*
Y370090D01*
X1195000Y276590D02*
Y370090D01*
X1091000Y276590D02*
X1195000D01*
X1091000Y370090D02*
X1195000D01*
X861130Y279670D02*
Y373170D01*
X965130Y279670D02*
Y373170D01*
X861130Y279670D02*
X965130D01*
X861130Y373170D02*
X965130D01*
X1221160Y530880D02*
Y547880D01*
X1212160Y530880D02*
Y547880D01*
X1221160D01*
X1212160Y530880D02*
X1221160D01*
X978170Y279670D02*
Y373170D01*
X1082170Y279670D02*
Y373170D01*
X978170Y279670D02*
X1082170D01*
X978170Y373170D02*
X1082170D01*
X1652960Y413140D02*
Y430140D01*
X1643960Y413140D02*
Y430140D01*
X1652960D01*
X1643960Y413140D02*
X1652960D01*
X1531946Y286680D02*
X1609946D01*
X1531946Y256680D02*
X1609946D01*
Y286680D01*
X1531946Y256680D02*
Y286680D01*
Y269180D02*
X1609946D01*
X1624236Y286669D02*
X1702236D01*
X1624236Y256669D02*
X1702236D01*
Y286669D01*
X1624236Y256669D02*
Y286669D01*
Y269169D02*
X1702236D01*
X1721710Y789810D02*
Y992810D01*
X1774710Y789810D02*
Y992810D01*
X1721710D02*
X1774710D01*
X1721710Y789810D02*
X1774710D01*
X1754710D02*
Y992810D01*
X1721710Y1007100D02*
Y1210100D01*
X1774710Y1007100D02*
Y1210100D01*
X1721710D02*
X1774710D01*
X1721710Y1007100D02*
X1774710D01*
X1754710D02*
Y1210100D01*
X1721710Y354310D02*
Y557310D01*
X1774710Y354310D02*
Y557310D01*
X1721710D02*
X1774710D01*
X1721710Y354310D02*
X1774710D01*
X1754710D02*
Y557310D01*
X1721710Y571600D02*
Y774600D01*
X1774710Y571600D02*
Y774600D01*
X1721710D02*
X1774710D01*
X1721710Y571600D02*
X1774710D01*
X1754710D02*
Y774600D01*
X1594148Y1116830D02*
Y1125830D01*
X1611148Y1116830D02*
Y1125830D01*
X1594148D02*
X1611148D01*
X1594148Y1116830D02*
X1611148D01*
X1637050Y1247810D02*
Y1256810D01*
X1654050Y1247810D02*
Y1256810D01*
X1637050D02*
X1654050D01*
X1637050Y1247810D02*
X1654050D01*
X1637050Y1177190D02*
Y1186190D01*
X1654050Y1177190D02*
Y1186190D01*
X1637050D02*
X1654050D01*
X1637050Y1177190D02*
X1654050D01*
X1637050Y1153650D02*
Y1162650D01*
X1654050Y1153650D02*
Y1162650D01*
X1637050D02*
X1654050D01*
X1637050Y1153650D02*
X1654050D01*
X1595138Y1046210D02*
Y1055210D01*
X1612138Y1046210D02*
Y1055210D01*
X1595138D02*
X1612138D01*
X1595138Y1046210D02*
X1612138D01*
X1595147Y1069750D02*
Y1078750D01*
X1612147Y1069750D02*
Y1078750D01*
X1595147D02*
X1612147D01*
X1595147Y1069750D02*
X1612147D01*
X1637050Y1130110D02*
Y1139110D01*
X1654050Y1130110D02*
Y1139110D01*
X1637050D02*
X1654050D01*
X1637050Y1130110D02*
X1654050D01*
X1595074Y1093290D02*
Y1102290D01*
X1612074Y1093290D02*
Y1102290D01*
X1595074D02*
X1612074D01*
X1595074Y1093290D02*
X1612074D01*
X1595138Y1022670D02*
Y1031670D01*
X1612138Y1022670D02*
Y1031670D01*
X1595138D02*
X1612138D01*
X1595138Y1022670D02*
X1612138D01*
X1637050Y1200730D02*
Y1209730D01*
X1654050Y1200730D02*
Y1209730D01*
X1637050D02*
X1654050D01*
X1637050Y1200730D02*
X1654050D01*
X1637050Y1224270D02*
Y1233270D01*
X1654050Y1224270D02*
Y1233270D01*
X1637050D02*
X1654050D01*
X1637050Y1224270D02*
X1654050D01*
X1595141Y999130D02*
Y1008130D01*
X1612141Y999130D02*
Y1008130D01*
X1595141D02*
X1612141D01*
X1595141Y999130D02*
X1612141D01*
X1048126Y946320D02*
X1057126D01*
X1048126Y929320D02*
X1057126D01*
Y946320D01*
X1048126Y929320D02*
Y946320D01*
X720400Y930720D02*
X729400D01*
X720400Y913720D02*
X729400D01*
Y930720D01*
X720400Y913720D02*
Y930720D01*
X841910Y853600D02*
Y873600D01*
X829410D02*
X841910D01*
X829410Y853600D02*
Y873600D01*
Y853600D02*
X841910D01*
X914840Y987670D02*
X923840D01*
X914840Y970670D02*
X923840D01*
Y987670D01*
X914840Y970670D02*
Y987670D01*
X939110Y970670D02*
X948110D01*
X939110Y987670D02*
X948110D01*
X939110Y970670D02*
Y987670D01*
X948110Y970670D02*
Y987670D01*
X1200840Y1134217D02*
X1209840D01*
X1200840Y1151217D02*
X1209840D01*
X1200840Y1134217D02*
Y1151217D01*
X1209840Y1134217D02*
Y1151217D01*
X1223880Y1151260D02*
X1232880D01*
X1223880Y1134260D02*
X1232880D01*
Y1151260D01*
X1223880Y1134260D02*
Y1151260D01*
X1566570Y857562D02*
Y875062D01*
X1533570Y857562D02*
Y875062D01*
Y857562D02*
X1566570D01*
X1533570Y875062D02*
X1566570D01*
X981020Y894960D02*
X990020D01*
X981020Y877960D02*
X990020D01*
Y894960D01*
X981020Y877960D02*
Y894960D01*
X1073730Y823350D02*
X1082730D01*
X1073730Y840350D02*
X1082730D01*
X1073730Y823350D02*
Y840350D01*
X1082730Y823350D02*
Y840350D01*
X1499180Y1074810D02*
X1508180D01*
X1499180Y1091810D02*
X1508180D01*
X1499180Y1074810D02*
Y1091810D01*
X1508180Y1074810D02*
Y1091810D01*
X1423658Y943450D02*
Y960950D01*
X1456658Y943450D02*
Y960950D01*
X1423658D02*
X1456658D01*
X1423658Y943450D02*
X1456658D01*
X1566570Y997380D02*
Y1014880D01*
X1533570Y997380D02*
Y1014880D01*
Y997380D02*
X1566570D01*
X1533570Y1014880D02*
X1566570D01*
X1003034Y1112360D02*
Y1129860D01*
X1036034Y1112360D02*
Y1129860D01*
X1003034D02*
X1036034D01*
X1003034Y1112360D02*
X1036034D01*
X999917Y972660D02*
Y990160D01*
X1032917Y972660D02*
Y990160D01*
X999917D02*
X1032917D01*
X999917Y972660D02*
X1032917D01*
X997980Y831690D02*
Y849190D01*
X1030980Y831690D02*
Y849190D01*
X997980D02*
X1030980D01*
X997980Y831690D02*
X1030980D01*
X1142390Y885188D02*
Y902688D01*
X1109390Y885188D02*
Y902688D01*
Y885188D02*
X1142390D01*
X1109390Y902688D02*
X1142390D01*
X1147470Y1165374D02*
Y1182874D01*
X1114470Y1165374D02*
Y1182874D01*
Y1165374D02*
X1147470D01*
X1114470Y1182874D02*
X1147470D01*
X1566570Y1137203D02*
Y1154703D01*
X1533570Y1137203D02*
Y1154703D01*
Y1137203D02*
X1566570D01*
X1533570Y1154703D02*
X1566570D01*
X1422044Y1083150D02*
Y1100650D01*
X1455044Y1083150D02*
Y1100650D01*
X1422044D02*
X1455044D01*
X1422044Y1083150D02*
X1455044D01*
X1143660Y1026713D02*
Y1044213D01*
X1110660Y1026713D02*
Y1044213D01*
Y1026713D02*
X1143660D01*
X1110660Y1044213D02*
X1143660D01*
X1458840Y1190570D02*
Y1199570D01*
X1441840Y1190570D02*
Y1199570D01*
Y1190570D02*
X1458840D01*
X1441840Y1199570D02*
X1458840D01*
X1078810Y1104020D02*
X1087810D01*
X1078810Y1121020D02*
X1087810D01*
X1078810Y1104020D02*
Y1121020D01*
X1087810Y1104020D02*
Y1121020D01*
X1458280Y1114190D02*
Y1164190D01*
X1498280Y1114190D02*
Y1164190D01*
X1458280D02*
X1498280D01*
X1458280Y1114190D02*
X1498280D01*
X1458280Y974490D02*
Y1024490D01*
X1498280Y974490D02*
Y1024490D01*
X1458280D02*
X1498280D01*
X1458280Y974490D02*
X1498280D01*
X1458280Y834790D02*
Y884790D01*
X1498280Y834790D02*
Y884790D01*
X1458280D02*
X1498280D01*
X1458280Y834790D02*
X1498280D01*
X1422085Y803750D02*
Y821250D01*
X1455085Y803750D02*
Y821250D01*
X1422085D02*
X1455085D01*
X1422085Y803750D02*
X1455085D01*
X1039180Y1143400D02*
Y1193400D01*
X1079180Y1143400D02*
Y1193400D01*
X1039180D02*
X1079180D01*
X1039180Y1143400D02*
X1079180D01*
X1035370Y1003700D02*
Y1053700D01*
X1075370Y1003700D02*
Y1053700D01*
X1035370D02*
X1075370D01*
X1035370Y1003700D02*
X1075370D01*
X710090Y1011020D02*
X730090D01*
Y1023520D01*
X710090D02*
X730090D01*
X710090Y1011020D02*
Y1023520D01*
X958950Y967900D02*
Y987900D01*
Y967900D02*
X971450D01*
Y987900D01*
X958950D02*
X971450D01*
X1034100Y862730D02*
Y912730D01*
X1074100Y862730D02*
Y912730D01*
X1034100D02*
X1074100D01*
X1034100Y862730D02*
X1074100D01*
X810840Y874640D02*
X819840D01*
X810840Y857640D02*
X819840D01*
Y874640D01*
X810840Y857640D02*
Y874640D01*
X761940Y893650D02*
Y998650D01*
X817940Y893650D02*
Y998650D01*
X761940D02*
X817940D01*
X761940Y893650D02*
X817940D01*
X1335070Y1135798D02*
Y1152798D01*
X1344070Y1135798D02*
Y1152798D01*
X1335070Y1135798D02*
X1344070D01*
X1335070Y1152798D02*
X1344070D01*
X759719Y1031690D02*
X768719D01*
X759719Y1014690D02*
X768719D01*
Y1031690D01*
X759719Y1014690D02*
Y1031690D01*
X884243Y834970D02*
Y843970D01*
X901243Y834970D02*
Y843970D01*
X884243D02*
X901243D01*
X884243Y834970D02*
X901243D01*
X937650Y907680D02*
Y916680D01*
X954650Y907680D02*
Y916680D01*
X937650D02*
X954650D01*
X937650Y907680D02*
X954650D01*
X919783Y834879D02*
Y843879D01*
X936783Y834879D02*
Y843879D01*
X919783D02*
X936783D01*
X919783Y834879D02*
X936783D01*
X1481880Y1178810D02*
Y1195810D01*
X1472880Y1178810D02*
Y1195810D01*
X1481880D01*
X1472880Y1178810D02*
X1481880D01*
X1054680Y1206490D02*
Y1223490D01*
X1063680Y1206490D02*
Y1223490D01*
X1054680Y1206490D02*
X1063680D01*
X1054680Y1223490D02*
X1063680D01*
X1273230Y879230D02*
Y896230D01*
X1264230Y879230D02*
Y896230D01*
X1273230D01*
X1264230Y879230D02*
X1273230D01*
X1326473Y877961D02*
Y894961D01*
X1335473Y877961D02*
Y894961D01*
X1326473Y877961D02*
X1335473D01*
X1326473Y894961D02*
X1335473D01*
X1039292Y1087290D02*
X1048292D01*
X1039292Y1070290D02*
X1048292D01*
Y1087290D01*
X1039292Y1070290D02*
Y1087290D01*
X1075000Y964690D02*
X1084000D01*
X1075000Y981690D02*
X1084000D01*
X1075000Y964690D02*
Y981690D01*
X1084000Y964690D02*
Y981690D01*
X1497910Y935480D02*
X1506910D01*
X1497910Y952480D02*
X1506910D01*
X1497910Y935480D02*
Y952480D01*
X1506910Y935480D02*
Y952480D01*
X1472163Y1058080D02*
X1481163D01*
X1472163Y1041080D02*
X1481163D01*
Y1058080D01*
X1472163Y1041080D02*
Y1058080D01*
X1033404Y1226990D02*
X1042404D01*
X1033404Y1209990D02*
X1042404D01*
Y1226990D01*
X1033404Y1209990D02*
Y1226990D01*
X1499180Y795040D02*
X1508180D01*
X1499180Y812040D02*
X1508180D01*
X1499180Y795040D02*
Y812040D01*
X1508180Y795040D02*
Y812040D01*
X1473780Y918380D02*
X1482780D01*
X1473780Y901380D02*
X1482780D01*
Y918380D01*
X1473780Y901380D02*
Y918380D01*
X1236290Y844940D02*
Y861940D01*
X1245290Y844940D02*
Y861940D01*
X1236290Y844940D02*
X1245290D01*
X1236290Y861940D02*
X1245290D01*
X1269527Y1151403D02*
X1278527D01*
X1269527Y1134403D02*
X1278527D01*
Y1151403D01*
X1269527Y1134403D02*
Y1151403D01*
X1292387D02*
X1301387D01*
X1292387Y1134403D02*
X1301387D01*
Y1151403D01*
X1292387Y1134403D02*
Y1151403D01*
X1285820Y895080D02*
X1294820D01*
X1285820Y878080D02*
X1294820D01*
Y895080D01*
X1285820Y878080D02*
Y895080D01*
X1285320Y918720D02*
X1295320D01*
X1285320Y936720D02*
X1295320D01*
X1285320Y918720D02*
Y936720D01*
X1295320Y918720D02*
Y936720D01*
X1292567Y1175838D02*
X1302567D01*
X1292567Y1193838D02*
X1302567D01*
X1292567Y1175838D02*
Y1193838D01*
X1302567Y1175838D02*
Y1193838D01*
X1268810Y1175636D02*
X1278810D01*
X1268810Y1193636D02*
X1278810D01*
X1268810Y1175636D02*
Y1193636D01*
X1278810Y1175636D02*
Y1193636D01*
X1261190Y918720D02*
X1271190D01*
X1261190Y936720D02*
X1271190D01*
X1261190Y918720D02*
Y936720D01*
X1271190Y918720D02*
Y936720D01*
X402980Y848940D02*
Y857940D01*
X419980Y848940D02*
Y857940D01*
X402980D02*
X419980D01*
X402980Y848940D02*
X419980D01*
X330560Y895450D02*
X375560D01*
X330560Y844450D02*
X375560D01*
X330560D02*
Y895450D01*
X375560Y844450D02*
Y895450D01*
X644280Y1088110D02*
Y1097110D01*
X661280Y1088110D02*
Y1097110D01*
X644280D02*
X661280D01*
X644280Y1088110D02*
X661280D01*
Y1111650D02*
Y1120650D01*
X644280Y1111650D02*
Y1120650D01*
Y1111650D02*
X661280D01*
X644280Y1120650D02*
X661280D01*
X621740Y1134690D02*
Y1143690D01*
X604740Y1134690D02*
Y1143690D01*
Y1134690D02*
X621740D01*
X604740Y1143690D02*
X621740D01*
X953570Y498019D02*
X962570D01*
X953570Y515019D02*
X962570D01*
X953570Y498019D02*
Y515019D01*
X962570Y498019D02*
Y515019D01*
X1030690Y501999D02*
X1039690D01*
X1030690Y518999D02*
X1039690D01*
X1030690Y501999D02*
Y518999D01*
X1039690Y501999D02*
Y518999D01*
X1258020Y299609D02*
X1267020D01*
X1258020Y316609D02*
X1267020D01*
X1258020Y299609D02*
Y316609D01*
X1267020Y299609D02*
Y316609D01*
X432160Y946680D02*
X477160D01*
X432160Y1044680D02*
X477160D01*
Y946680D02*
Y1044680D01*
X432160Y946680D02*
Y1044680D01*
X1649443Y760110D02*
X1688117D01*
X1627853Y332120D02*
X1666527D01*
X1667456Y494709D02*
Y503709D01*
X1684456Y494709D02*
Y503709D01*
X1667456D02*
X1684456D01*
X1667456Y494709D02*
X1684456D01*
X1298520Y435220D02*
X1307520D01*
X1298520Y418220D02*
X1307520D01*
Y435220D01*
X1298520Y418220D02*
Y435220D01*
X1680600Y673680D02*
Y682680D01*
X1697600Y673680D02*
Y682680D01*
X1680600D02*
X1697600D01*
X1680600Y673680D02*
X1697600D01*
X1581320Y710990D02*
Y716490D01*
X1570820Y710990D02*
Y716490D01*
Y710990D02*
X1581320D01*
X1570820Y716490D02*
X1581320D01*
X1663355Y777712D02*
X1668855D01*
X1663355Y788212D02*
X1668855D01*
X1663355Y777712D02*
Y788212D01*
X1668855Y777712D02*
Y788212D01*
X1681870Y647010D02*
Y656010D01*
X1698870Y647010D02*
Y656010D01*
X1681870D02*
X1698870D01*
X1681870Y647010D02*
X1698870D01*
D134*
X1702310Y346960D02*
Y354080D01*
X1693800Y346960D02*
Y354080D01*
X1325120Y503170D02*
Y510290D01*
X1316610Y503170D02*
Y510290D01*
M02*
